<?xml version="1.0" encoding="utf-8"?>
<!-- Generator: Adobe Illustrator 25.2.3, SVG Export Plug-In . SVG Version: 6.00 Build 0)  -->
<svg version="1.1" id="Layer_1" xmlns="http://www.w3.org/2000/svg" xmlns:xlink="http://www.w3.org/1999/xlink" x="0px" y="0px"
	 width="25px" height="40px" viewBox="0 0 25 40" style="enable-background:new 0 0 25 40;" xml:space="preserve">
<style type="text/css">
	.st0{fill:#F7D3E5;}
	.st1{fill:#FFFFFF;}
	.st2{fill:#F3A9CC;}
	.st3{fill:#FEFDEF;}
</style>
<g>
	<path class="st0" d="M24.5,11.4c-1.7-7.4-8.9-11-15.7-9C1,4.7-2.3,13.8,2.1,20.8c2.5,4,5.1,8,7.6,12c1.1,1.7,2.2,3.5,3.3,5.3
		c0.2-0.3,0.4-0.6,0.5-1.1c2.5-5.5,5.6-10.9,9-15.8C24.6,18.2,25.4,14.9,24.5,11.4z"/>
	<g>
		<g>
			<line class="st1" x1="17.1" y1="8.1" x2="15.3" y2="8.1"/>
			<circle class="st2" cx="12.7" cy="13.7" r="10.4"/>
		</g>
	</g>
	<g>
		<g>
			<path class="st3" d="M22.4,14.5c-3.5,7.2-12.3-2.4-15.9,4.7c-0.6-2.8-1.3-5.7-1.9-8.5C7.8,4,15.8,12.6,18.8,5.8
				C20.1,8.8,21.3,11.6,22.4,14.5z"/>
			<g>
				<g>
					<path class="st0" d="M6.8,10.8c-0.6,0.4-1.2,1.1-1.7,2c-0.2-0.7-0.3-1.5-0.5-2.1c0.5-0.9,1.1-1.6,1.7-2
						C6.4,9.3,6.6,10,6.8,10.8z"/>
					<path class="st0" d="M11.2,10.3c-0.8-0.1-1.6-0.2-2.3-0.1C8.7,9.4,8.5,8.8,8.3,8C9,7.9,9.8,8,10.6,8.1
						C10.8,8.8,11,9.5,11.2,10.3z"/>
					<path class="st0" d="M16,10.8c-0.7,0.1-1.6,0-2.3-0.1c-0.2-0.7-0.5-1.5-0.7-2.2c0.7,0.1,1.6,0.2,2.3,0.1
						C15.5,9.3,15.8,10,16,10.8z"/>
					<path class="st0" d="M19.8,8c-0.4,0.9-1.1,1.6-1.7,2c-0.3-0.7-0.5-1.5-0.8-2.2c0.6-0.4,1.2-1.1,1.6-2C19.1,6.6,19.5,7.3,19.8,8
						z"/>
				</g>
				<g>
					<path class="st0" d="M7.9,15c-0.6,0.4-1.3,1.2-1.8,2.1c-0.2-0.7-0.3-1.5-0.5-2.1c0.5-0.9,1.1-1.7,1.7-2.1
						C7.4,13.6,7.7,14.3,7.9,15z"/>
					<path class="st0" d="M12.5,14.5c-0.8-0.1-1.7-0.2-2.5-0.2c-0.2-0.7-0.4-1.4-0.6-2.1c0.7-0.1,1.6,0,2.4,0.2
						C12.1,13.1,12.3,13.7,12.5,14.5z"/>
					<path class="st0" d="M17.6,15.1c-0.8,0-1.6,0-2.5-0.2c-0.2-0.7-0.5-1.5-0.7-2.2c0.8,0.1,1.7,0.2,2.4,0.2
						C17,13.6,17.4,14.4,17.6,15.1z"/>
					<path class="st0" d="M21.6,12.4c-0.5,1.1-1.1,1.7-1.8,2.1c-0.3-0.7-0.5-1.5-0.8-2.2c0.6-0.4,1.3-1.1,1.7-2.1
						C20.9,10.9,21.3,11.6,21.6,12.4z"/>
				</g>
				<g>
					<path class="st0" d="M9.4,12.2c-0.7,0.1-1.5,0.2-2.1,0.6c-0.2-0.7-0.3-1.4-0.5-2.1C7.4,10.3,8.2,10,8.9,10
						C9,10.8,9.2,11.5,9.4,12.2z"/>
					<path class="st0" d="M14.4,12.8c-0.8-0.1-1.7-0.3-2.5-0.4c-0.2-0.7-0.4-1.5-0.6-2.1c0.8,0.1,1.6,0.3,2.4,0.4
						C13.9,11.3,14.2,12.1,14.4,12.8z"/>
					<path class="st0" d="M18.9,12.3c-0.6,0.4-1.4,0.6-2.1,0.6c-0.2-0.7-0.5-1.5-0.7-2.2c0.7-0.1,1.5-0.2,2.1-0.6
						C18.4,10.8,18.7,11.5,18.9,12.3z"/>
				</g>
				<g>
					<path class="st0" d="M10.6,16.4c-0.8,0-1.6,0.2-2.3,0.6c-0.2-0.7-0.3-1.4-0.5-2.1c0.6-0.4,1.4-0.6,2.2-0.6
						C10.2,15,10.4,15.7,10.6,16.4z"/>
					<path class="st0" d="M15.8,17.1c-0.8-0.1-1.8-0.3-2.6-0.5c-0.2-0.7-0.4-1.5-0.6-2.1c0.8,0.1,1.7,0.3,2.5,0.4
						C15.3,15.6,15.6,16.4,15.8,17.1z"/>
					<path class="st0" d="M20.6,16.7c-0.7,0.4-1.5,0.6-2.3,0.6c-0.2-0.7-0.5-1.5-0.7-2.2c0.8,0,1.6-0.2,2.2-0.6
						C20.1,15.2,20.4,16,20.6,16.7z"/>
				</g>
			</g>
		</g>
		<g>
			<path class="st3" d="M3.9,8.7c-0.2,0-0.4,0.2-0.3,0.5l6.2,23c0.1,0.2,0.3,0.3,0.5,0.3l0,0L3.9,8.7L3.9,8.7z"/>
			<path class="st3" d="M3.9,8.7l6.4,23.8c0.2-0.1,0.3-0.3,0.3-0.5L4.4,8.9C4.3,8.7,4.1,8.6,3.9,8.7z"/>
		</g>
	</g>
</g>
</svg>
