<?xml version="1.0" encoding="utf-8"?>
<!-- Generator: Adobe Illustrator 25.2.3, SVG Export Plug-In . SVG Version: 6.00 Build 0)  -->
<svg version="1.1" id="Layer_1" xmlns="http://www.w3.org/2000/svg" xmlns:xlink="http://www.w3.org/1999/xlink" x="0px" y="0px"
	 width="25px" height="40px" viewBox="0 0 25 40" style="enable-background:new 0 0 25 40;" xml:space="preserve">
<style type="text/css">
	.st0{fill:#F7D3E5;stroke:#58595B;stroke-width:0.5193;stroke-miterlimit:10;}
	.st1{fill:#FFFFFF;}
	.st2{fill:#F3A9CC;}
	.st3{fill:#FEFDEF;}
	.st4{fill:#F7D3E5;}
</style>
<path class="st0" d="M24.3,12C22.7,4.7,15.6,1.2,8.9,3.2C1.2,5.4-2,14.4,2.2,21.2c2.5,3.9,5,7.9,7.5,11.8c1,1.7,2.2,3.4,3.2,5.2
	c0.2-0.3,0.4-0.6,0.5-1c2.5-5.4,5.5-10.7,8.8-15.6C24.4,18.7,25.2,15.4,24.3,12z"/>
<g>
	<g>
		<line class="st1" x1="16.9" y1="8.8" x2="15" y2="8.8"/>
		<circle class="st2" cx="12.5" cy="14.2" r="10.3"/>
	</g>
</g>
<g>
	<g>
		<path class="st3" d="M21.9,15.6C18.8,22.8,9.7,13.8,6.5,21c-0.7-2.8-1.5-5.5-2.2-8.3C7,6,15.3,14,18,7.3
			C19.4,10.1,20.7,12.9,21.9,15.6z"/>
		<g>
			<g>
				<path class="st4" d="M6.4,12.7c-0.6,0.4-1.1,1.1-1.6,2c-0.2-0.7-0.4-1.4-0.6-2.1c0.5-1,1-1.6,1.6-2C5.9,11.2,6.2,12,6.4,12.7z"
					/>
				<path class="st4" d="M10.7,12c-0.8-0.1-1.6-0.1-2.3,0c-0.2-0.7-0.5-1.3-0.7-2c0.7-0.1,1.5-0.1,2.3,0
					C10.3,10.5,10.5,11.2,10.7,12z"/>
				<path class="st4" d="M15.4,12.3c-0.7,0.1-1.6,0.1-2.3,0c-0.2-0.7-0.6-1.4-0.8-2.1c0.7,0.1,1.6,0.1,2.3,0
					C14.8,10.8,15.2,11.5,15.4,12.3z"/>
				<path class="st4" d="M19,9.4c-0.4,1-1,1.6-1.6,2c-0.3-0.7-0.6-1.4-0.9-2.1c0.6-0.4,1.1-1.1,1.5-2C18.4,8,18.7,8.7,19,9.4z"/>
			</g>
			<g>
				<path class="st4" d="M7.6,16.8C7,17.2,6.4,18,6,18.9c-0.2-0.7-0.4-1.4-0.6-2.1c0.5-1,1-1.7,1.6-2.2C7.1,15.4,7.4,16.1,7.6,16.8z
					"/>
				<path class="st4" d="M12.2,16c-0.8-0.1-1.7-0.1-2.5-0.1c-0.2-0.7-0.5-1.3-0.7-2c0.7-0.1,1.6-0.1,2.4,0.1
					C11.7,14.7,11.9,15.3,12.2,16z"/>
				<path class="st4" d="M17.2,16.4c-0.8,0-1.6,0.1-2.5-0.1c-0.2-0.7-0.6-1.4-0.8-2.1c0.8,0.1,1.7,0.1,2.4,0.1
					C16.6,15,16.9,15.7,17.2,16.4z"/>
				<path class="st4" d="M21,13.6c-0.5,1.1-1,1.7-1.7,2.2c-0.3-0.7-0.6-1.4-0.9-2.1c0.6-0.4,1.2-1.1,1.6-2.2
					C20.3,12.1,20.7,12.9,21,13.6z"/>
			</g>
			<g>
				<path class="st4" d="M9.1,13.9c-0.7,0.1-1.4,0.3-2,0.7c-0.2-0.7-0.4-1.3-0.6-2.1c0.6-0.4,1.3-0.7,2-0.7
					C8.6,12.6,8.8,13.3,9.1,13.9z"/>
				<path class="st4" d="M14,14.3c-0.8-0.1-1.7-0.2-2.5-0.3c-0.2-0.7-0.5-1.4-0.7-2c0.8,0.1,1.6,0.2,2.4,0.3
					C13.4,12.9,13.7,13.6,14,14.3z"/>
				<path class="st4" d="M18.4,13.6c-0.6,0.4-1.3,0.7-2,0.7c-0.2-0.7-0.6-1.4-0.8-2.1c0.7-0.1,1.4-0.3,2-0.7
					C17.8,12.2,18.2,12.9,18.4,13.6z"/>
			</g>
			<g>
				<path class="st4" d="M10.4,18c-0.8,0-1.5,0.3-2.3,0.7c-0.2-0.7-0.4-1.3-0.6-2.1C8.1,16.2,8.8,16,9.7,16
					C9.9,16.7,10.1,17.4,10.4,18z"/>
				<path class="st4" d="M15.5,18.5c-0.8-0.1-1.8-0.2-2.6-0.4c-0.2-0.7-0.5-1.4-0.7-2c0.8,0.1,1.7,0.2,2.5,0.3
					C15,17.1,15.3,17.8,15.5,18.5z"/>
				<path class="st4" d="M20.3,17.9c-0.7,0.4-1.4,0.7-2.3,0.7c-0.2-0.7-0.6-1.4-0.8-2.1c0.8,0,1.5-0.3,2.2-0.7
					C19.7,16.4,20,17.1,20.3,17.9z"/>
			</g>
		</g>
	</g>
	<g>
		<path class="st3" d="M3.4,10.7c-0.2,0-0.4,0.2-0.3,0.5l7.1,22.1c0.1,0.2,0.3,0.3,0.5,0.3l0,0L3.4,10.7L3.4,10.7z"/>
		<path class="st3" d="M3.4,10.7l7.4,22.9c0.2-0.1,0.3-0.3,0.3-0.5L3.9,10.9C3.8,10.7,3.6,10.6,3.4,10.7z"/>
	</g>
</g>
</svg>
