<?xml version="1.0" encoding="utf-8"?>
<!-- Generator: Adobe Illustrator 25.2.3, SVG Export Plug-In . SVG Version: 6.00 Build 0)  -->
<svg version="1.1" id="Layer_1" xmlns="http://www.w3.org/2000/svg" xmlns:xlink="http://www.w3.org/1999/xlink" x="0px" y="0px"
	 width="25px" height="40px" viewBox="0 0 25 40" style="enable-background:new 0 0 25 40;" xml:space="preserve">
<style type="text/css">
	.st0{fill:#F7D3E5;}
	.st1{fill:none;}
	.st2{fill:#F3A9CC;}
	.st3{fill:#FEFDEF;}
</style>
<path class="st0" d="M23.9,11.9C22.3,4.9,15.5,1.5,9,3.4C1.6,5.5-1.5,14.2,2.6,20.8c2.4,3.8,4.8,7.6,7.2,11.4c1,1.6,2.1,3.3,3.1,5
	c0.2-0.3,0.4-0.6,0.5-1c2.4-5.2,5.3-10.3,8.5-15C24,18.3,24.7,15.2,23.9,11.9z"/>
<g>
	<g>
		<line class="st1" x1="16.7" y1="9.2" x2="15" y2="9.2"/>
		<circle class="st2" cx="12.5" cy="14.5" r="9.9"/>
	</g>
</g>
<g>
	<path class="st3" d="M4.9,15.7c0.3-0.6,0.5-1.3,0.9-1.7c0.9-1.1,2.4-1.3,3.7-0.7c1.2,0.7,1.9,2.1,1.5,3.5c-0.3,1.4-1.6,2.3-3,2.3
		s-2.6-0.9-3-2.3c0-0.2-0.1-0.3-0.1-0.4C4.9,16.1,4.9,15.9,4.9,15.7z M8,18.5c1.4,0,2.5-1.1,2.5-2.5S9.4,13.5,8,13.5
		S5.5,14.6,5.5,16C5.5,17.3,6.6,18.5,8,18.5z"/>
	<path class="st3" d="M11.3,11.4c0.5,0.3,1,0.5,1.4,0.8c0.2,0.2,0.5,0.6,0.5,0.9c0.1,1,0,2,0,3.1c0,0.4-0.2,0.8-0.6,0.8
		c-0.5,0-0.7-0.3-0.7-0.8c0-0.6,0-1.3,0-1.9c0-0.4-0.1-0.6-0.5-0.8c-0.6-0.3-1.2-0.7-1.8-1c-0.8-0.5-0.9-1.1-0.3-1.8
		c0.7-0.7,1.4-1.5,2.2-2.2c0.6-0.6,1.2-0.5,1.7,0.1c0.3,0.5,0.7,1,0.9,1.5c0.2,0.3,0.4,0.5,0.8,0.4c0.4,0,0.8,0,1.2,0
		c0.3,0,0.7,0,0.7,0.5s-0.4,0.4-0.7,0.4c-0.5,0-1.1,0-1.6,0s-0.8-0.1-1.1-0.6c-0.2-0.3-0.4-0.6-0.6-0.9
		C12.3,10.4,11.8,10.9,11.3,11.4z"/>
	<path class="st3" d="M17,19.1c-1.7,0-3.1-1.4-3.1-3.1s1.4-3,3.1-3s3.1,1.4,3.1,3.1C20.1,17.7,18.7,19.1,17,19.1z M17.1,13.5
		c-1.4,0-2.5,1.1-2.5,2.5s1.1,2.5,2.5,2.5s2.5-1.1,2.5-2.5S18.5,13.5,17.1,13.5z"/>
	<path class="st3" d="M14,8.5c-0.6,0-1.2-0.5-1.2-1.1s0.5-1.2,1.2-1.2c0.6,0,1.1,0.5,1.1,1.1C15.1,8,14.6,8.5,14,8.5z"/>
</g>
</svg>
