<?xml version="1.0" encoding="utf-8"?>
<!-- Generator: Adobe Illustrator 25.2.3, SVG Export Plug-In . SVG Version: 6.00 Build 0)  -->
<svg version="1.1" id="Layer_1" xmlns="http://www.w3.org/2000/svg" xmlns:xlink="http://www.w3.org/1999/xlink" x="0px" y="0px"
	 width="25px" height="40px" viewBox="0 0 25 40" style="enable-background:new 0 0 25 40;" xml:space="preserve">
<style type="text/css">
	.st0{fill:#F7D3E5;stroke:#58595B;stroke-width:0.5111;stroke-miterlimit:10;}
	.st1{fill:#FFFFFF;}
	.st2{fill:#F3A9CC;}
	.st3{fill:#FEFDEF;}
</style>
<g>
	<path class="st0" d="M24.2,13C22.5,5.8,15.6,2.3,8.9,4.3C1.4,6.4-1.8,15.3,2.4,22c2.5,3.9,4.9,7.8,7.4,11.7
		c1.1,1.7,2.1,3.3,3.2,5.1c0.2-0.3,0.4-0.6,0.6-1c2.5-5.4,5.4-10.5,8.7-15.4C24.3,19.5,24.9,16.3,24.2,13z"/>
	<g>
		<g>
			<line class="st1" x1="16.8" y1="10.2" x2="15" y2="10.2"/>
			<circle class="st2" cx="12.5" cy="15.6" r="10.1"/>
		</g>
	</g>
	<g>
		<path class="st3" d="M4.7,16.8C5,16.2,5.2,15.5,5.6,15c0.9-1.1,2.5-1.4,3.8-0.7c1.3,0.7,1.9,2.1,1.6,3.5c-0.3,1.4-1.6,2.4-3,2.4
			c-1.4,0-2.7-1-3-2.4c0-0.2-0.1-0.3-0.1-0.5C4.7,17.2,4.7,17,4.7,16.8z M7.9,19.7c1.4,0,2.6-1.2,2.6-2.6c0-1.4-1.1-2.5-2.5-2.5
			c-1.4,0-2.6,1.1-2.6,2.5C5.3,18.5,6.5,19.7,7.9,19.7z"/>
		<path class="st3" d="M11.3,12.4c0.5,0.3,1,0.5,1.4,0.8c0.3,0.2,0.5,0.6,0.5,0.9c0.1,1,0,2.1,0,3.1c0,0.5-0.2,0.8-0.6,0.8
			c-0.5,0-0.7-0.3-0.7-0.8c0-0.7,0-1.3,0-2c0-0.4-0.1-0.6-0.5-0.8c-0.6-0.3-1.3-0.7-1.9-1c-0.9-0.5-1-1.1-0.3-1.8
			c0.7-0.7,1.5-1.5,2.2-2.2c0.6-0.6,1.2-0.5,1.7,0.2c0.3,0.5,0.7,1,1,1.5c0.2,0.4,0.4,0.5,0.8,0.4c0.4,0,0.8,0,1.2,0
			c0.3,0,0.7,0,0.7,0.5c0,0.5-0.4,0.5-0.7,0.5c-0.6,0-1.1,0-1.7,0c-0.5,0-0.9-0.1-1.1-0.6c-0.2-0.3-0.4-0.6-0.6-0.9
			C12.3,11.4,11.8,11.9,11.3,12.4z"/>
		<path class="st3" d="M17.1,20.3c-1.8,0-3.1-1.4-3.1-3.2c0-1.7,1.4-3.1,3.1-3.1c1.7,0,3.2,1.5,3.1,3.2
			C20.3,18.9,18.9,20.3,17.1,20.3z M17.2,14.6c-1.4,0-2.6,1.1-2.6,2.5c0,1.4,1.2,2.6,2.6,2.6c1.4,0,2.5-1.1,2.5-2.5
			C19.7,15.7,18.6,14.6,17.2,14.6z"/>
		<path class="st3" d="M14,9.5c-0.7,0-1.2-0.5-1.2-1.1c0-0.7,0.5-1.2,1.2-1.2c0.7,0,1.2,0.5,1.2,1.2C15.2,8.9,14.7,9.5,14,9.5z"/>
	</g>
</g>
</svg>
