<?xml version="1.0" encoding="utf-8"?>
<!-- Generator: Adobe Illustrator 25.2.3, SVG Export Plug-In . SVG Version: 6.00 Build 0)  -->
<svg version="1.1" id="Layer_1" xmlns="http://www.w3.org/2000/svg" xmlns:xlink="http://www.w3.org/1999/xlink" x="0px" y="0px"
	 width="50px" height="80px" viewBox="0 0 50 80" enable-background="new 0 0 50 80" xml:space="preserve">
<g>
	<path fill="#606060" d="M1.1,49.6c0.9-1.9,1.6-4.1,2.8-5.3c2.8-3.5,7.5-4.1,11.6-2.2c3.8,2.2,6,6.6,4.7,11c-0.9,4.4-5,7.2-9.4,7.2
		S2.7,57.4,1.4,53c0-0.6-0.3-0.9-0.3-1.3C1.1,50.8,1.1,50.2,1.1,49.6z M10.9,58.4c4.4,0,7.9-3.5,7.9-7.9s-3.5-7.9-7.9-7.9
		S3,46.1,3,50.5C3,54.6,6.5,58.4,10.9,58.4z"/>
	<path fill="#606060" d="M21.2,36.1c1.6,0.9,3.1,1.6,4.4,2.5c0.6,0.6,1.6,1.9,1.6,2.8c0.3,3.1,0,6.3,0,9.7c0,1.3-0.6,2.5-1.9,2.5
		c-1.6,0-2.2-0.9-2.2-2.5c0-1.9,0-4.1,0-6c0-1.3-0.3-1.9-1.6-2.5c-1.9-0.9-3.8-2.2-5.7-3.1c-2.5-1.6-2.8-3.5-0.9-5.7
		c2.2-2.2,4.4-4.7,6.9-6.9c1.9-1.9,3.8-1.6,5.3,0.3c0.9,1.6,2.2,3.1,2.8,4.7c0.6,0.9,1.3,1.6,2.5,1.3c1.3,0,2.5,0,3.8,0
		c0.9,0,2.2,0,2.2,1.6s-1.3,1.3-2.2,1.3c-1.6,0-3.5,0-5,0c-1.6,0-2.5-0.3-3.5-1.9c-0.6-0.9-1.3-1.9-1.9-2.8
		C24.4,32.9,22.8,34.5,21.2,36.1z"/>
	<path fill="#606060" d="M39.1,60.3c-5.3,0-9.7-4.4-9.7-9.7s4.4-9.4,9.7-9.4s9.7,4.4,9.7,9.7C48.9,55.9,44.5,60.3,39.1,60.3z
		 M39.5,42.7c-4.4,0-7.9,3.5-7.9,7.9s3.5,7.9,7.9,7.9s7.9-3.5,7.9-7.9S43.9,42.7,39.5,42.7z"/>
	<path fill="#606060" d="M29.7,27c-1.9,0-3.8-1.6-3.8-3.5c0-1.9,1.6-3.8,3.8-3.8c1.9,0,3.5,1.6,3.5,3.5C33.2,25.4,31.6,27,29.7,27z"
		/>
</g>
</svg>
