<?xml version="1.0" encoding="utf-8"?>
<!-- Generator: Adobe Illustrator 25.2.3, SVG Export Plug-In . SVG Version: 6.00 Build 0)  -->
<svg version="1.1" id="Layer_1" xmlns="http://www.w3.org/2000/svg" xmlns:xlink="http://www.w3.org/1999/xlink" x="0px" y="0px"
	 width="50px" height="80px" viewBox="0 0 50 80" enable-background="new 0 0 50 80" xml:space="preserve">
<g>
	<path fill="#EF9CCB" d="M48.1,24.7c-3.2-14.2-17-21.1-30.2-17.2c-15,4.3-21.3,21.9-13,35.3c4.9,7.7,9.7,15.4,14.6,23.1
		c2,3.2,4.3,6.7,6.3,10.1c0.4-0.6,0.8-1.2,1-2c4.9-10.5,10.8-20.9,17.2-30.4C48.3,37.7,49.8,31.4,48.1,24.7z"/>
	<g>
		<g>
			<circle fill="#F7D3E5" cx="25" cy="29.9" r="20.1"/>
		</g>
	</g>
	<g>
		<path fill="#FFFFFF" d="M9.6,32.4c0.6-1.2,1-2.6,1.8-3.4c1.8-2.2,4.9-2.6,7.5-1.4c2.4,1.4,3.9,4.3,3,7.1c-0.6,2.8-3.2,4.7-6.1,4.7
			s-5.3-1.8-6.1-4.7c0-0.4-0.2-0.6-0.2-0.8C9.6,33.2,9.6,32.8,9.6,32.4z M15.9,38.1c2.8,0,5.1-2.2,5.1-5.1s-2.2-5.1-5.1-5.1
			s-5.1,2.2-5.1,5.1C10.8,35.6,13,38.1,15.9,38.1z"/>
		<path fill="#FFFFFF" d="M22.6,23.7c1,0.6,2,1,2.8,1.6c0.4,0.4,1,1.2,1,1.8c0.2,2,0,4.1,0,6.3c0,0.8-0.4,1.6-1.2,1.6
			c-1,0-1.4-0.6-1.4-1.6c0-1.2,0-2.6,0-3.9c0-0.8-0.2-1.2-1-1.6c-1.2-0.6-2.4-1.4-3.7-2c-1.6-1-1.8-2.2-0.6-3.7
			c1.4-1.4,2.8-3,4.5-4.5c1.2-1.2,2.4-1,3.4,0.2c0.6,1,1.4,2,1.8,3c0.4,0.6,0.8,1,1.6,0.8c0.8,0,1.6,0,2.4,0c0.6,0,1.4,0,1.4,1
			s-0.8,0.8-1.4,0.8c-1,0-2.2,0-3.2,0s-1.6-0.2-2.2-1.2c-0.4-0.6-0.8-1.2-1.2-1.8C24.6,21.6,23.6,22.6,22.6,23.7z"/>
		<path fill="#FFFFFF" d="M34.1,39.3c-3.4,0-6.3-2.8-6.3-6.3s2.8-6.1,6.3-6.1s6.3,2.8,6.3,6.3C40.4,36.4,37.6,39.3,34.1,39.3z
			 M34.3,27.9c-2.8,0-5.1,2.2-5.1,5.1s2.2,5.1,5.1,5.1s5.1-2.2,5.1-5.1S37.2,27.9,34.3,27.9z"/>
		<path fill="#FFFFFF" d="M28,17.8c-1.2,0-2.4-1-2.4-2.2s1-2.4,2.4-2.4c1.2,0,2.2,1,2.2,2.2C30.3,16.8,29.3,17.8,28,17.8z"/>
	</g>
</g>
</svg>
