<?xml version="1.0" encoding="utf-8"?>
<!-- Generator: Adobe Illustrator 25.2.3, SVG Export Plug-In . SVG Version: 6.00 Build 0)  -->
<svg version="1.1" id="Layer_1" xmlns="http://www.w3.org/2000/svg" xmlns:xlink="http://www.w3.org/1999/xlink" x="0px" y="0px"
	 width="25px" height="40px" viewBox="0 0 25 40" style="enable-background:new 0 0 25 40;" xml:space="preserve">
<style type="text/css">
	.st0{fill:#EBABC4;stroke:#58595B;stroke-width:0.25;stroke-miterlimit:10;}
</style>
<path class="st0" d="M12.8,37.7c-1.1-1.7-2.1-3.3-3.1-5C7.3,29,4.8,25.2,2.4,21.4C-1.8,14.8,1.4,6.1,8.8,4
	c6.5-1.9,13.3,1.5,14.9,8.5c0.7,3.2,0.1,6.3-1.8,9.2c-3.3,4.8-6.1,9.8-8.5,15C13.2,37.1,13,37.4,12.8,37.7z M17.1,13.1
	c0-2.8-2.2-5-5-4.9c-2.7,0.1-4.9,2.3-4.8,5c0.1,3.1,3.2,5.6,6.4,4.5C15.7,17,17.1,15.2,17.1,13.1z"/>
</svg>
