<?xml version="1.0" encoding="utf-8"?>
<!-- Generator: Adobe Illustrator 25.2.3, SVG Export Plug-In . SVG Version: 6.00 Build 0)  -->
<svg version="1.1" id="Layer_1" xmlns="http://www.w3.org/2000/svg" xmlns:xlink="http://www.w3.org/1999/xlink" x="0px" y="0px"
	 width="50px" height="80px" viewBox="0 0 50 80" enable-background="new 0 0 50 80" xml:space="preserve">
<g>
	<path fill="#EF9CCB" d="M48.1,22.8C44.9,8.6,31.1,1.7,17.9,5.5c-15,4.3-21.3,21.9-13,35.3c4.9,7.7,9.7,15.4,14.6,23.1
		c2,3.2,4.3,6.7,6.3,10.1c0.4-0.6,0.8-1.2,1-2c4.9-10.5,10.8-20.9,17.2-30.4C48.3,35.7,49.8,29.5,48.1,22.8z"/>
	<g>
		<g>
			<g>
				<circle fill="#F7D3E5" cx="25" cy="28" r="20.9"/>
			</g>
		</g>
	</g>
	<g>
		<path fill="#FFFFFF" d="M44.1,28.2c-6.7,13.8-23.7-4.7-30.6,9.1c-1.2-5.5-2.4-11-3.7-16.4c6.1-13,21.5,3.7,27.4-9.5
			C39.6,17.3,41.8,22.6,44.1,28.2z"/>
		<g>
			<g>
				<path fill="none" stroke="#606060" stroke-width="1.000000e-02" stroke-miterlimit="10" d="M44.1,28.2
					c-6.7,13.8-23.7-4.7-30.6,9.1c-1.2-5.5-2.4-11-3.7-16.4c6.1-13,21.5,3.7,27.4-9.5C39.6,17.3,41.8,22.6,44.1,28.2z"/>
				<g>
					<g>
						<path fill="#F4ABD3" d="M14,21.1c-1.2,0.8-2.2,2-3.2,3.9c-0.4-1.4-0.6-2.8-1-4.1c1-1.8,2-3,3.2-3.9
							C13.2,18.3,13.6,19.5,14,21.1z"/>
						<path fill="#F4ABD3" d="M22.4,20.1c-1.6-0.2-3-0.4-4.5-0.2c-0.2-1.4-0.6-2.6-1-4.3c1.4-0.2,2.8,0,4.5,0.2
							C21.8,17.3,22,18.7,22.4,20.1z"/>
						<path fill="#F4ABD3" d="M31.7,21.1c-1.4,0.2-3,0-4.5-0.2c-0.4-1.4-1-2.8-1.4-4.3c1.4,0.2,3,0.4,4.5,0.2
							C30.7,18.3,31.3,19.5,31.7,21.1z"/>
						<path fill="#F4ABD3" d="M39,15.7c-0.8,1.8-2,3-3.2,3.9c-0.6-1.4-1-2.8-1.6-4.3c1.2-0.8,2.2-2,3-3.9C37.6,13,38.4,14.4,39,15.7
							z"/>
					</g>
					<g>
						<path fill="#F4ABD3" d="M16.1,29.3c-1.2,0.8-2.4,2.2-3.4,4.1c-0.4-1.4-0.6-2.8-1-4.1c1-1.8,2-3.2,3.2-4.1
							C15.1,26.4,15.7,27.8,16.1,29.3z"/>
						<path fill="#F4ABD3" d="M25,28.2c-1.6-0.2-3.2-0.4-4.9-0.4c-0.4-1.4-0.8-2.6-1.2-4.1c1.4-0.2,3,0,4.7,0.4
							C24.2,25.6,24.6,26.6,25,28.2z"/>
						<path fill="#F4ABD3" d="M34.7,29.5c-1.6,0-3,0-4.9-0.4c-0.4-1.4-1-2.8-1.4-4.3c1.6,0.2,3.2,0.4,4.7,0.4
							C33.5,26.4,34.3,28,34.7,29.5z"/>
						<path fill="#F4ABD3" d="M42.4,24.2c-1,2-2,3.2-3.4,4.1c-0.6-1.4-1-2.8-1.6-4.3c1.2-0.8,2.4-2,3.2-4.1
							C41.2,21.3,41.8,22.6,42.4,24.2z"/>
					</g>
					<g>
						<path fill="#F4ABD3" d="M18.9,23.8c-1.4,0.2-2.8,0.4-4.1,1.2c-0.4-1.4-0.6-2.6-1-4.1c1.2-0.8,2.6-1.4,4.1-1.4
							C18.1,21.1,18.5,22.6,18.9,23.8z"/>
						<path fill="#F4ABD3" d="M28.7,25c-1.6-0.2-3.2-0.6-4.9-0.8c-0.4-1.4-0.8-2.8-1.2-4.1c1.6,0.2,3,0.6,4.7,0.8
							C27.6,22.2,28.2,23.6,28.7,25z"/>
						<path fill="#F4ABD3" d="M37.4,24c-1.2,0.8-2.6,1.2-4.1,1.2c-0.4-1.4-1-2.8-1.4-4.3c1.4-0.2,2.8-0.4,4.1-1.2
							C36.4,21.1,37,22.6,37.4,24z"/>
					</g>
					<g>
						<path fill="#F4ABD3" d="M21.4,31.9c-1.6,0-3,0.4-4.5,1.2c-0.4-1.4-0.6-2.6-1-4.1c1.2-0.8,2.6-1.2,4.3-1.2
							C20.5,29.3,20.9,30.5,21.4,31.9z"/>
						<path fill="#F4ABD3" d="M31.3,33.3c-1.6-0.2-3.4-0.6-5.1-1c-0.4-1.4-0.8-2.8-1.2-4.1c1.6,0.2,3.2,0.6,4.9,0.8
							C30.3,30.3,30.9,31.9,31.3,33.3z"/>
						<path fill="#F4ABD3" d="M40.6,32.5c-1.4,0.8-2.8,1.2-4.5,1.2c-0.4-1.4-1-2.8-1.4-4.3c1.6,0,3-0.4,4.3-1.2
							C39.6,29.7,40.2,31.1,40.6,32.5z"/>
					</g>
				</g>
			</g>
			<g>
				<path fill="#FFFFFF" d="M8.4,17.1c-0.4,0-0.8,0.4-0.6,1l12,44.4c0.2,0.4,0.6,0.6,1,0.6l0,0L8.4,17.1L8.4,17.1z"/>
				<path fill="#FFFFFF" d="M8.4,17.1l12.4,45.8c0.4-0.2,0.6-0.6,0.6-1l-12-44.6C9.2,17.1,8.8,16.9,8.4,17.1z"/>
			</g>
		</g>
	</g>
</g>
</svg>
