<?xml version="1.0" encoding="utf-8"?>
<!-- Generator: Adobe Illustrator 25.2.3, SVG Export Plug-In . SVG Version: 6.00 Build 0)  -->
<svg version="1.1" id="Layer_1" xmlns="http://www.w3.org/2000/svg" xmlns:xlink="http://www.w3.org/1999/xlink" x="0px" y="0px"
	 width="50px" height="80px" viewBox="0 0 50 80" enable-background="new 0 0 50 80" xml:space="preserve">
<g>
	<path fill="#EF9CCB" d="M48.4,26.7c-3.2-14.2-17-21.1-30.2-17.2c-15,4.3-21.3,21.9-13,35.3c4.9,7.7,9.7,15.4,14.6,23.1
		c2,3.2,4.3,6.7,6.3,10.1c0.4-0.6,0.8-1.2,1-2C32,65.5,37.9,55.1,44.3,45.6C48.6,39.7,50,33.4,48.4,26.7z"/>
	<g>
		<g>
			<circle fill="#F7D3E5" cx="25.3" cy="32" r="20.1"/>
		</g>
	</g>
	<g>
		<path fill="#606060" d="M9.9,34.4c0.6-1.2,1-2.6,1.8-3.4c1.8-2.2,4.9-2.6,7.5-1.4c2.4,1.4,3.9,4.3,3,7.1c-0.6,2.8-3.2,4.7-6.1,4.7
			s-5.3-1.8-6.1-4.7c0-0.4-0.2-0.6-0.2-0.8C9.9,35.2,9.9,34.8,9.9,34.4z M16.2,40.1c2.8,0,5.1-2.2,5.1-5.1c0-2.8-2.2-5.1-5.1-5.1
			s-5.1,2.2-5.1,5.1C11.1,37.7,13.3,40.1,16.2,40.1z"/>
		<path fill="#606060" d="M22.9,25.7c1,0.6,2,1,2.8,1.6c0.4,0.4,1,1.2,1,1.8c0.2,2,0,4.1,0,6.3c0,0.8-0.4,1.6-1.2,1.6
			c-1,0-1.4-0.6-1.4-1.6c0-1.2,0-2.6,0-3.9c0-0.8-0.2-1.2-1-1.6c-1.2-0.6-2.4-1.4-3.7-2c-1.6-1-1.8-2.2-0.6-3.7
			c1.4-1.4,2.8-3,4.5-4.5c1.2-1.2,2.4-1,3.4,0.2c0.6,1,1.4,2,1.8,3c0.4,0.6,0.8,1,1.6,0.8c0.8,0,1.6,0,2.4,0c0.6,0,1.4,0,1.4,1
			s-0.8,0.8-1.4,0.8c-1,0-2.2,0-3.2,0s-1.6-0.2-2.2-1.2c-0.4-0.6-0.8-1.2-1.2-1.8C24.9,23.7,23.9,24.7,22.9,25.7z"/>
		<path fill="#606060" d="M34.4,41.3c-3.4,0-6.3-2.8-6.3-6.3s2.8-6.1,6.3-6.1s6.3,2.8,6.3,6.3C40.7,38.5,37.9,41.3,34.4,41.3z
			 M34.6,30c-2.8,0-5.1,2.2-5.1,5.1c0,2.8,2.2,5.1,5.1,5.1c2.9,0,5.1-2.2,5.1-5.1S37.5,30,34.6,30z"/>
		<path fill="#606060" d="M28.3,19.8c-1.2,0-2.4-1-2.4-2.2s1-2.4,2.4-2.4c1.2,0,2.2,1,2.2,2.2C30.6,18.8,29.5,19.8,28.3,19.8z"/>
	</g>
</g>
</svg>
