<?xml version="1.0" encoding="utf-8"?>
<!-- Generator: Adobe Illustrator 25.2.3, SVG Export Plug-In . SVG Version: 6.00 Build 0)  -->
<svg version="1.1" id="Layer_1" xmlns="http://www.w3.org/2000/svg" xmlns:xlink="http://www.w3.org/1999/xlink" x="0px" y="0px"
	 width="50px" height="80px" viewBox="0 0 50 80" enable-background="new 0 0 50 80" xml:space="preserve">
<g>
	<g>
		<g>
			<g>
				<circle fill="#F7D3E5" cx="24.4" cy="27.3" r="20.9"/>
			</g>
		</g>
	</g>
	<path fill="#606060" d="M26.1,75c-2.2-3.4-4.3-6.7-6.3-10.1C14.9,57.4,9.9,49.7,5,42c-8.5-13.4-2-31,13-35.3
		c13.2-3.9,27,3,30.2,17.2c1.4,6.5,0.2,12.8-3.7,18.7C37.9,52.3,32.2,62.5,27.3,73C26.9,73.8,26.5,74.4,26.1,75z M34.8,25.1
		c0-5.7-4.5-10.1-10.1-9.9c-5.5,0.2-9.9,4.7-9.7,10.1c0.2,6.3,6.5,11.4,13,9.1C32,33.1,34.8,29.4,34.8,25.1z"/>
</g>
</svg>
