<?xml version="1.0" encoding="utf-8"?>
<!-- Generator: Adobe Illustrator 25.2.3, SVG Export Plug-In . SVG Version: 6.00 Build 0)  -->
<svg version="1.1" id="Layer_1" xmlns="http://www.w3.org/2000/svg" xmlns:xlink="http://www.w3.org/1999/xlink" x="0px" y="0px"
	 width="50px" height="80px" viewBox="0 0 50 80" enable-background="new 0 0 50 80" xml:space="preserve">
<g>
	<path fill="#606060" d="M47.6,22C44.4,7.8,30.6,0.9,17.4,4.8C2.4,9-3.9,26.7,4.4,40.1c4.9,7.7,9.7,15.4,14.6,23.1
		c2,3.2,4.3,6.7,6.3,10.1c0.4-0.6,0.8-1.2,1-2c4.9-10.5,10.8-20.9,17.2-30.4C47.8,35,49.3,28.7,47.6,22z"/>
	<g>
		<g>
			<g>
				<circle fill="#F7D3E5" cx="24.5" cy="27.3" r="20.9"/>
			</g>
		</g>
	</g>
	<g>
		<path fill="#FFFFFF" d="M43.6,27.5c-6.7,13.8-23.7-4.7-30.6,9.1c-1.2-5.5-2.4-11-3.7-16.4c6.1-13,21.5,3.7,27.4-9.5
			C39.1,16.5,41.3,21.8,43.6,27.5z"/>
		<g>
			<g>
				<path fill="none" stroke="#606060" stroke-width="1.000000e-02" stroke-miterlimit="10" d="M43.6,27.5
					c-6.7,13.8-23.7-4.7-30.6,9.1c-1.2-5.5-2.4-11-3.7-16.4c6.1-13,21.5,3.7,27.4-9.5C39.1,16.5,41.3,21.8,43.6,27.5z"/>
				<g>
					<g>
						<path fill="#F4ABD3" d="M13.5,20.4c-1.2,0.8-2.2,2-3.2,3.9c-0.4-1.4-0.6-2.8-1-4.1c1-1.8,2-3,3.2-3.9
							C12.7,17.5,13.1,18.8,13.5,20.4z"/>
						<path fill="#F4ABD3" d="M21.9,19.4c-1.6-0.2-3-0.4-4.5-0.2c-0.2-1.4-0.6-2.6-1-4.3c1.4-0.2,2.8,0,4.5,0.2
							C21.3,16.5,21.5,17.9,21.9,19.4z"/>
						<path fill="#F4ABD3" d="M31.2,20.4c-1.4,0.2-3,0-4.5-0.2c-0.4-1.4-1-2.8-1.4-4.3c1.4,0.2,3,0.4,4.5,0.2
							C30.2,17.5,30.8,18.8,31.2,20.4z"/>
						<path fill="#F4ABD3" d="M38.5,14.9c-0.8,1.8-2,3-3.2,3.9c-0.6-1.4-1-2.8-1.6-4.3c1.2-0.8,2.2-2,3-3.9
							C37.1,12.3,37.9,13.7,38.5,14.9z"/>
					</g>
					<g>
						<path fill="#F4ABD3" d="M15.6,28.5c-1.2,0.8-2.4,2.2-3.4,4.1c-0.4-1.4-0.6-2.8-1-4.1c1-1.8,2-3.2,3.2-4.1
							C14.6,25.7,15.2,27.1,15.6,28.5z"/>
						<path fill="#F4ABD3" d="M24.5,27.5c-1.6-0.2-3.2-0.4-4.9-0.4c-0.4-1.4-0.8-2.6-1.2-4.1c1.4-0.2,3,0,4.7,0.4
							C23.7,24.8,24.1,25.9,24.5,27.5z"/>
						<path fill="#F4ABD3" d="M34.2,28.7c-1.6,0-3,0-4.9-0.4c-0.4-1.4-1-2.8-1.4-4.3c1.6,0.2,3.2,0.4,4.7,0.4
							C33,25.7,33.8,27.3,34.2,28.7z"/>
						<path fill="#F4ABD3" d="M41.9,23.4c-1,2-2,3.2-3.4,4.1c-0.6-1.4-1-2.8-1.6-4.3c1.2-0.8,2.4-2,3.2-4.1
							C40.7,20.6,41.3,21.8,41.9,23.4z"/>
					</g>
					<g>
						<path fill="#F4ABD3" d="M18.4,23c-1.4,0.2-2.8,0.4-4.1,1.2c-0.4-1.4-0.6-2.6-1-4.1c1.2-0.8,2.6-1.4,4.1-1.4
							C17.6,20.4,18,21.8,18.4,23z"/>
						<path fill="#F4ABD3" d="M28.2,24.2c-1.6-0.2-3.2-0.6-4.9-0.8c-0.4-1.4-0.8-2.8-1.2-4.1c1.6,0.2,3,0.6,4.7,0.8
							C27.1,21.4,27.7,22.8,28.2,24.2z"/>
						<path fill="#F4ABD3" d="M36.9,23.2c-1.2,0.8-2.6,1.2-4.1,1.2c-0.4-1.4-1-2.8-1.4-4.3c1.4-0.2,2.8-0.4,4.1-1.2
							C35.9,20.4,36.5,21.8,36.9,23.2z"/>
					</g>
					<g>
						<path fill="#F4ABD3" d="M20.9,31.1c-1.6,0-3,0.4-4.5,1.2c-0.4-1.4-0.6-2.6-1-4.1c1.2-0.8,2.6-1.2,4.3-1.2
							C20,28.5,20.4,29.7,20.9,31.1z"/>
						<path fill="#F4ABD3" d="M30.8,32.5c-1.6-0.2-3.4-0.6-5.1-1c-0.4-1.4-0.8-2.8-1.2-4.1c1.6,0.2,3.2,0.6,4.9,0.8
							C29.8,29.5,30.4,31.1,30.8,32.5z"/>
						<path fill="#F4ABD3" d="M40.1,31.7c-1.4,0.8-2.8,1.2-4.5,1.2c-0.4-1.4-1-2.8-1.4-4.3c1.6,0,3-0.4,4.3-1.2
							C39.1,28.9,39.7,30.3,40.1,31.7z"/>
					</g>
				</g>
			</g>
			<g>
				<path fill="#FFFFFF" d="M7.9,16.3c-0.4,0-0.8,0.4-0.6,1l12,44.4c0.2,0.4,0.6,0.6,1,0.6l0,0L7.9,16.3L7.9,16.3z"/>
				<path fill="#FFFFFF" d="M7.9,16.3l12.4,45.8c0.4-0.2,0.6-0.6,0.6-1l-12-44.6C8.7,16.3,8.3,16.1,7.9,16.3z"/>
			</g>
		</g>
	</g>
</g>
</svg>
