<?xml version="1.0" encoding="utf-8"?>
<!-- Generator: Adobe Illustrator 25.2.3, SVG Export Plug-In . SVG Version: 6.00 Build 0)  -->
<svg version="1.1" id="Layer_1" xmlns="http://www.w3.org/2000/svg" xmlns:xlink="http://www.w3.org/1999/xlink" x="0px" y="0px"
	 width="35px" height="56px" viewBox="0 0 35 56" enable-background="new 0 0 35 56" xml:space="preserve">
<g>
	<g>
		<g>
			<circle fill="#F7D3E5" cx="18.2" cy="21.8" r="13.5"/>
		</g>
	</g>
	<path fill="#F291C4" d="M18.6,52.7c-1.5-2.3-2.9-4.5-4.2-6.8c-3.3-5-6.7-10.3-10-15.5c-5.7-9-1.3-20.9,8.8-23.8
		c8.9-2.6,18.2,2,20.3,11.6c0.9,4.4,0.1,8.6-2.5,12.6c-4.5,6.5-8.3,13.4-11.6,20.5C19.1,51.9,18.8,52.3,18.6,52.7z M24.4,19.2
		c0-3.8-3-6.8-6.8-6.7c-3.7,0.1-6.7,3.2-6.5,6.8c0.1,4.2,4.4,7.7,8.8,6.1C22.5,24.5,24.4,22.1,24.4,19.2z"/>
</g>
</svg>
