<?xml version="1.0" encoding="utf-8"?>
<!-- Generator: Adobe Illustrator 25.2.3, SVG Export Plug-In . SVG Version: 6.00 Build 0)  -->
<svg version="1.1" id="Layer_1" xmlns="http://www.w3.org/2000/svg" xmlns:xlink="http://www.w3.org/1999/xlink" x="0px" y="0px"
	 width="50px" height="80px" viewBox="0 0 50 80" enable-background="new 0 0 50 80" xml:space="preserve">
<g>
	<g>
		<g>
			<circle fill="#606060" cx="25.6" cy="30.2" r="20.1"/>
		</g>
	</g>
	<path fill="#F291C4" d="M26.1,76.1c-2.2-3.4-4.3-6.7-6.3-10.1C14.9,58.5,9.9,50.7,5,43C-3.5,29.6,3,12,18,7.7
		c13.2-3.9,27,3,30.2,17.2c1.4,6.5,0.2,12.8-3.7,18.7c-6.7,9.7-12.4,19.9-17.2,30.4C26.9,74.9,26.5,75.5,26.1,76.1z M34.8,26.2
		c0-5.7-4.5-10.1-10.1-9.9c-5.5,0.2-9.9,4.7-9.7,10.1c0.2,6.3,6.5,11.4,13,9.1C32,34.1,34.8,30.5,34.8,26.2z"/>
</g>
</svg>
