<?xml version="1.0" encoding="utf-8"?>
<!-- Generator: Adobe Illustrator 25.2.3, SVG Export Plug-In . SVG Version: 6.00 Build 0)  -->
<svg version="1.1" id="Layer_1" xmlns="http://www.w3.org/2000/svg" xmlns:xlink="http://www.w3.org/1999/xlink" x="0px" y="0px"
	 width="50px" height="80px" viewBox="0 0 50 80" enable-background="new 0 0 50 80" xml:space="preserve">
<g>
	<path fill="#EF9CCB" d="M48.1,24.9c-3.2-14.2-17-21.1-30.2-17.2C2.9,12-3.4,29.6,4.9,43c4.9,7.7,9.7,15.4,14.6,23.1
		c2,3.2,4.3,6.7,6.3,10.1c0.4-0.6,0.8-1.2,1-2C31.7,63.7,37.6,53.3,44,43.8C48.3,37.9,49.7,31.6,48.1,24.9z"/>
	<g>
		<g>
			<g>
				<circle fill="#F7D3E5" cx="24.9" cy="30.2" r="20.9"/>
			</g>
		</g>
	</g>
	<g>
		<path fill="#606060" d="M44,30.4c-6.7,13.8-23.7-4.7-30.6,9.1c-1.2-5.5-2.4-11-3.7-16.4c6.1-13,21.5,3.7,27.4-9.5
			C39.6,19.4,41.8,24.7,44,30.4z"/>
		<g>
			<g>
				<path fill="none" stroke="#606060" stroke-width="1.000000e-02" stroke-miterlimit="10" d="M44,30.4
					c-6.7,13.8-23.7-4.7-30.6,9.1c-1.2-5.5-2.4-11-3.7-16.4c6.1-13,21.5,3.7,27.4-9.5C39.6,19.4,41.8,24.7,44,30.4z"/>
				<g>
					<g>
						<path fill="#FBFAF2" d="M14,23.3c-1.2,0.8-2.2,2-3.2,3.9c-0.4-1.4-0.6-2.8-1-4.1c1-1.8,2-3,3.2-3.9
							C13.2,20.5,13.6,21.7,14,23.3z"/>
						<path fill="#FBFAF2" d="M22.3,22.3c-1.6-0.2-3-0.4-4.5-0.2c-0.2-1.4-0.6-2.6-1-4.3c1.4-0.2,2.8,0,4.5,0.2
							C21.7,19.4,21.9,20.9,22.3,22.3z"/>
						<path fill="#FBFAF2" d="M31.6,23.3c-1.4,0.2-3,0-4.5-0.2c-0.4-1.4-1-2.8-1.4-4.3c1.4,0.2,3,0.4,4.5,0.2
							C30.6,20.5,31.2,21.7,31.6,23.3z"/>
						<path fill="#FBFAF2" d="M38.9,17.8c-0.8,1.8-2,3-3.2,3.9c-0.6-1.4-1-2.8-1.6-4.3c1.2-0.8,2.2-2,3-3.9
							C37.5,15.2,38.3,16.6,38.9,17.8z"/>
					</g>
					<g>
						<path fill="#FBFAF2" d="M16,31.4c-1.2,0.8-2.4,2.2-3.4,4.1c-0.4-1.4-0.6-2.8-1-4.1c1-1.8,2-3.2,3.2-4.1
							C15,28.6,15.6,30,16,31.4z"/>
						<path fill="#FBFAF2" d="M24.9,30.4C23.3,30.2,21.7,30,20,30c-0.4-1.4-0.8-2.6-1.2-4.1c1.4-0.2,3,0,4.7,0.4
							C24.1,27.8,24.5,28.8,24.9,30.4z"/>
						<path fill="#FBFAF2" d="M34.7,31.6c-1.6,0-3,0-4.9-0.4c-0.4-1.4-1-2.8-1.4-4.3c1.6,0.2,3.2,0.4,4.7,0.4
							C33.5,28.6,34.3,30.2,34.7,31.6z"/>
						<path fill="#FBFAF2" d="M42.4,26.3c-1,2-2,3.2-3.4,4.1c-0.6-1.4-1-2.8-1.6-4.3c1.2-0.8,2.4-2,3.2-4.1
							C41.2,23.5,41.8,24.7,42.4,26.3z"/>
					</g>
					<g>
						<path fill="#FBFAF2" d="M18.9,25.9c-1.4,0.2-2.8,0.4-4.1,1.2c-0.4-1.4-0.6-2.6-1-4.1c1.2-0.8,2.6-1.4,4.1-1.4
							C18.1,23.3,18.5,24.7,18.9,25.9z"/>
						<path fill="#FBFAF2" d="M28.6,27.1c-1.6-0.2-3.2-0.6-4.9-0.8c-0.4-1.4-0.8-2.8-1.2-4.1c1.6,0.2,3,0.6,4.7,0.8
							C27.6,24.3,28.2,25.7,28.6,27.1z"/>
						<path fill="#FBFAF2" d="M37.3,26.1c-1.2,0.8-2.6,1.2-4.1,1.2c-0.4-1.4-1-2.8-1.4-4.3c1.4-0.2,2.8-0.4,4.1-1.2
							C36.3,23.3,36.9,24.7,37.3,26.1z"/>
					</g>
					<g>
						<path fill="#FBFAF2" d="M21.3,34c-1.6,0-3,0.4-4.5,1.2c-0.4-1.4-0.6-2.6-1-4.1c1.2-0.8,2.6-1.2,4.3-1.2
							C20.5,31.4,20.9,32.6,21.3,34z"/>
						<path fill="#FBFAF2" d="M31.2,35.5c-1.6-0.2-3.4-0.6-5.1-1c-0.4-1.4-0.8-2.8-1.2-4.1c1.6,0.2,3.2,0.6,4.9,0.8
							C30.2,32.4,30.8,34,31.2,35.5z"/>
						<path fill="#FBFAF2" d="M40.6,34.7c-1.4,0.8-2.8,1.2-4.5,1.2c-0.4-1.4-1-2.8-1.4-4.3c1.6,0,3-0.4,4.3-1.2
							C39.6,31.8,40.2,33.2,40.6,34.7z"/>
					</g>
				</g>
			</g>
			<g>
				<path fill="#606060" d="M8.3,19.2c-0.4,0-0.8,0.4-0.6,1l12,44.4c0.2,0.4,0.6,0.6,1,0.6l0,0L8.3,19.2L8.3,19.2z"/>
				<path fill="#606060" d="M8.3,19.2L20.7,65c0.4-0.2,0.6-0.6,0.6-1l-12-44.6C9.1,19.2,8.7,19,8.3,19.2z"/>
			</g>
		</g>
	</g>
</g>
</svg>
